# xmcd CD database file
#
# Track frame offsets:
#	150
#	17325
#	30029
#	44963
#	58526
#	76478
#	95419
#	111181
#	123249
#	137372
#	158607
#
# Disc length: 2296 seconds
#
# Revision: 0
# Processed by: cddbd v1.5.2PL0 Copyright (c) Steve Scherf et al.
# Submitted via: CDex 1.51
#
DISCID=7b08f60b
DTITLE=Thomas Schleiken - Beech Mountain Hill
DYEAR=2012
DGENRE=Blues
TTITLE0=Praying On The Old Camp Ground
TTITLE1=Beech Mountain Hill
TTITLE2=There`s A Table Sittin' In Heaven
TTITLE3=From Four Until Late
TTITLE4=Deepwater Horizon
TTITLE5=When The Saints Go Marching In
TTITLE6=Blessed Be The Name
TTITLE7=Sliding Delta
TTITLE8=Northwest
TTITLE9=Will The Circle Be Unbroken
TTITLE10=Further On Up The Road
EXTD=YEAR: 2012
EXTT0=
EXTT1=
EXTT2=
EXTT3=
EXTT4=
EXTT5=
EXTT6=
EXTT7=
EXTT8=
EXTT9=
EXTT10=
PLAYORDER=
